<svg width="25" height="26" viewBox="0 0 25 26" fill="none" xmlns="http://www.w3.org/2000/svg">
<g clip-path="url(#clip0_40_8)">
<path d="M24.9881 13.2339C24.9881 12.2096 24.903 11.4622 24.7189 10.6871H12.749V15.31H19.7751C19.6335 16.4589 18.8686 18.189 17.1687 19.3516L17.1448 19.5064L20.9295 22.3712L21.1917 22.3968C23.5998 20.2237 24.9881 17.0263 24.9881 13.2339Z" fill="#4285F4"/>
<path d="M12.749 25.4141C16.1912 25.4141 19.081 24.3068 21.1917 22.3968L17.1687 19.3516C16.0921 20.0852 14.6472 20.5973 12.749 20.5973C9.37764 20.5973 6.51621 18.4243 5.49619 15.4208L5.34668 15.4332L1.41133 18.4091L1.35986 18.5489C3.45635 22.6181 7.76269 25.4141 12.749 25.4141Z" fill="#34A853"/>
<path d="M5.49619 15.4208C5.22705 14.6457 5.07129 13.8152 5.07129 12.9571C5.07129 12.0989 5.22705 11.2684 5.48203 10.4933L5.4749 10.3282L1.49023 7.30458L1.35986 7.36517C0.495801 9.05382 0 10.9501 0 12.9571C0 14.964 0.495801 16.8602 1.35986 18.5489L5.49619 15.4208Z" fill="#FBBC05"/>
<path d="M12.749 5.3167C15.143 5.3167 16.7578 6.3271 17.6786 7.17147L21.2767 3.73884C19.0669 1.73187 16.1912 0.5 12.749 0.5C7.76269 0.5 3.45635 3.2959 1.35986 7.36517L5.48203 10.4933C6.51621 7.48979 9.37764 5.3167 12.749 5.3167Z" fill="#EB4335"/>
</g>
<defs>
<clipPath id="clip0_40_8">
<rect width="25" height="25" fill="white" transform="translate(0 0.5)"/>
</clipPath>
</defs>
</svg>
