<svg width="136" height="40" viewBox="0 0 136 40" fill="none" xmlns="http://www.w3.org/2000/svg">
<path d="M58.8182 31.3409C57.4091 31.3409 56.1515 30.9811 55.0455 30.2614C53.947 29.5341 53.0833 28.5 52.4545 27.1591C51.8333 25.8106 51.5227 24.1932 51.5227 22.3068C51.5227 20.4205 51.8371 18.8068 52.4659 17.4659C53.1023 16.125 53.9735 15.0985 55.0795 14.3864C56.1856 13.6742 57.4394 13.3182 58.8409 13.3182C59.9242 13.3182 60.7955 13.5 61.4545 13.8636C62.1212 14.2197 62.6364 14.6364 63 15.1136C63.3712 15.5909 63.6591 16.0114 63.8636 16.375H64.0682V7.72727H67.4659V31H64.1477V28.2841H63.8636C63.6591 28.6553 63.3636 29.0795 62.9773 29.5568C62.5985 30.0341 62.0758 30.4508 61.4091 30.8068C60.7424 31.1629 59.8788 31.3409 58.8182 31.3409ZM59.5682 28.4432C60.5455 28.4432 61.3712 28.1856 62.0455 27.6705C62.7273 27.1477 63.2424 26.4242 63.5909 25.5C63.947 24.5758 64.125 23.5 64.125 22.2727C64.125 21.0606 63.9508 20 63.6023 19.0909C63.2538 18.1818 62.7424 17.4735 62.0682 16.9659C61.3939 16.4583 60.5606 16.2045 59.5682 16.2045C58.5455 16.2045 57.6932 16.4697 57.0114 17C56.3295 17.5303 55.8144 18.2538 55.4659 19.1705C55.125 20.0871 54.9545 21.1212 54.9545 22.2727C54.9545 23.4394 55.1288 24.4886 55.4773 25.4205C55.8258 26.3523 56.3409 27.0909 57.0227 27.6364C57.7121 28.1742 58.5606 28.4432 59.5682 28.4432ZM79.8381 31.3523C78.1184 31.3523 76.6373 30.9848 75.3949 30.25C74.16 29.5076 73.2055 28.4659 72.5312 27.125C71.8646 25.7765 71.5312 24.197 71.5312 22.3864C71.5312 20.5985 71.8646 19.0227 72.5312 17.6591C73.2055 16.2955 74.1449 15.2311 75.3494 14.4659C76.5616 13.7008 77.9782 13.3182 79.5994 13.3182C80.5843 13.3182 81.5388 13.4811 82.4631 13.8068C83.3873 14.1326 84.2169 14.6439 84.9517 15.3409C85.6866 16.0379 86.2661 16.9432 86.6903 18.0568C87.1146 19.1629 87.3267 20.5076 87.3267 22.0909V23.2955H73.4517V20.75H83.9972C83.9972 19.8561 83.8153 19.0644 83.4517 18.375C83.0881 17.678 82.5767 17.1288 81.9176 16.7273C81.2661 16.3258 80.5009 16.125 79.6222 16.125C78.6676 16.125 77.8343 16.3598 77.1222 16.8295C76.4176 17.2917 75.8722 17.8977 75.4858 18.6477C75.107 19.3902 74.9176 20.197 74.9176 21.0682V23.0568C74.9176 24.2235 75.1222 25.2159 75.5312 26.0341C75.9479 26.8523 76.5275 27.4773 77.2699 27.9091C78.0123 28.3333 78.8797 28.5455 79.8722 28.5455C80.5161 28.5455 81.1032 28.4545 81.6335 28.2727C82.1638 28.0833 82.6222 27.803 83.0085 27.4318C83.3949 27.0606 83.6903 26.6023 83.8949 26.0568L87.1108 26.6364C86.8532 27.5833 86.3911 28.4129 85.7244 29.125C85.0653 29.8295 84.2358 30.3788 83.2358 30.7727C82.2434 31.1591 81.1108 31.3523 79.8381 31.3523ZM94.4943 7.72727V31H91.0966V7.72727H94.4943ZM107.213 13.5455V16.2727H97.679V13.5455H107.213ZM100.236 9.36364H103.634V25.875C103.634 26.5341 103.732 27.0303 103.929 27.3636C104.126 27.6894 104.38 27.9129 104.69 28.0341C105.009 28.1477 105.353 28.2045 105.724 28.2045C105.997 28.2045 106.236 28.1856 106.44 28.1477C106.645 28.1098 106.804 28.0795 106.918 28.0568L107.531 30.8636C107.334 30.9394 107.054 31.0152 106.69 31.0909C106.327 31.1742 105.872 31.2197 105.327 31.2273C104.433 31.2424 103.599 31.0833 102.827 30.75C102.054 30.4167 101.429 29.9015 100.952 29.2045C100.474 28.5076 100.236 27.6326 100.236 26.5795V9.36364ZM116.051 31.3864C114.945 31.3864 113.945 31.1818 113.051 30.7727C112.157 30.3561 111.449 29.7538 110.926 28.9659C110.411 28.178 110.153 27.2121 110.153 26.0682C110.153 25.0833 110.343 24.2727 110.722 23.6364C111.1 23 111.612 22.4962 112.256 22.125C112.9 21.7538 113.619 21.4735 114.415 21.2841C115.21 21.0947 116.021 20.9508 116.847 20.8523C117.892 20.7311 118.741 20.6326 119.392 20.5568C120.044 20.4735 120.517 20.3409 120.812 20.1591C121.108 19.9773 121.256 19.6818 121.256 19.2727V19.1932C121.256 18.2008 120.975 17.4318 120.415 16.8864C119.862 16.3409 119.036 16.0682 117.938 16.0682C116.794 16.0682 115.892 16.322 115.233 16.8295C114.581 17.3295 114.131 17.8864 113.881 18.5L110.688 17.7727C111.066 16.7121 111.619 15.8561 112.347 15.2045C113.081 14.5455 113.926 14.0682 114.881 13.7727C115.835 13.4697 116.839 13.3182 117.892 13.3182C118.589 13.3182 119.328 13.4015 120.108 13.5682C120.896 13.7273 121.631 14.0227 122.312 14.4545C123.002 14.8864 123.566 15.5038 124.006 16.3068C124.445 17.1023 124.665 18.1364 124.665 19.4091V31H121.347V28.6136H121.21C120.991 29.053 120.661 29.4848 120.222 29.9091C119.782 30.3333 119.218 30.6856 118.528 30.9659C117.839 31.2462 117.013 31.3864 116.051 31.3864ZM116.79 28.6591C117.729 28.6591 118.532 28.4735 119.199 28.1023C119.873 27.7311 120.384 27.2462 120.733 26.6477C121.089 26.0417 121.267 25.3939 121.267 24.7045V22.4545C121.146 22.5758 120.911 22.6894 120.562 22.7955C120.222 22.8939 119.831 22.9811 119.392 23.0568C118.953 23.125 118.525 23.1894 118.108 23.25C117.691 23.303 117.343 23.3485 117.062 23.3864C116.403 23.4697 115.801 23.6098 115.256 23.8068C114.718 24.0038 114.286 24.2879 113.96 24.6591C113.642 25.0227 113.483 25.5076 113.483 26.1136C113.483 26.9545 113.794 27.5909 114.415 28.0227C115.036 28.447 115.828 28.6591 116.79 28.6591ZM131.429 31.2159C130.808 31.2159 130.274 30.9962 129.827 30.5568C129.38 30.1098 129.156 29.572 129.156 28.9432C129.156 28.322 129.38 27.7917 129.827 27.3523C130.274 26.9053 130.808 26.6818 131.429 26.6818C132.05 26.6818 132.584 26.9053 133.031 27.3523C133.478 27.7917 133.702 28.322 133.702 28.9432C133.702 29.3598 133.596 29.7424 133.384 30.0909C133.179 30.4318 132.906 30.7045 132.565 30.9091C132.224 31.1136 131.846 31.2159 131.429 31.2159Z" fill="#030122"/>
<rect width="40" height="40" rx="8" fill="#065AD8"/>
<path d="M19.4768 9.85426V21.3338L17.2053 19.8388C13.1722 17.1691 10.6689 12.2036 10.6689 6.81085H9V19.9456C9 24.217 11.1324 28.1681 14.5166 30.0368L19.5232 32.8133V21.3338L21.7947 22.8288C25.8278 25.4984 28.3311 30.464 28.3311 35.8567H30V22.722C30 18.4505 27.8675 14.4995 24.4834 12.6307L19.4768 9.85426Z" fill="white"/>
</svg>
